<?xml version="1.0" standalone="no"?>
<!DOCTYPE svg PUBLIC "-//W3C//DTD SVG 20010904//EN"
 "http://www.w3.org/TR/2001/REC-SVG-20010904/DTD/svg10.dtd">
<svg version="1.0" xmlns="http://www.w3.org/2000/svg"
 width="578.000000pt" height="578.000000pt" viewBox="0 0 578.000000 578.000000"
 preserveAspectRatio="xMidYMid meet">

<g transform="translate(0.000000,578.000000) scale(0.100000,-0.100000)"
fill="#4C3D3D" stroke="none">
<path d="M2826 5606 c-46 -17 -89 -57 -111 -103 -21 -43 -21 -132 -1 -171 17
-34 76 -87 105 -97 19 -6 21 -14 21 -104 l0 -98 -46 -29 c-76 -48 -108 -126
-85 -211 29 -106 144 -161 248 -118 48 20 71 41 95 89 41 81 5 196 -78 247
l-34 21 0 99 c0 94 1 100 23 108 98 38 143 181 87 279 -43 77 -145 116 -224
88z m102 -148 c28 -28 0 -88 -41 -88 -26 0 -57 28 -57 51 0 40 69 66 98 37z
m-8 -593 c28 -34 -30 -84 -65 -55 -15 13 -20 51 -8 63 12 12 60 7 73 -8z"/>
<path d="M2253 5431 c-35 -9 -74 -37 -103 -74 l-19 -24 -815 -6 c-912 -6 -857
-1 -918 -77 l-28 -35 -2 -535 c-2 -294 1 -552 5 -572 6 -28 16 -42 40 -55 39
-20 140 -24 159 -5 10 10 14 121 16 522 3 450 5 510 19 522 13 10 162 14 760
16 l745 2 51 -45 c28 -26 63 -53 79 -61 23 -12 28 -21 28 -54 0 -73 -11 -87
-77 -94 -85 -10 -119 -23 -132 -52 -15 -35 -14 -109 4 -143 l14 -28 158 -7
c150 -7 233 0 254 21 4 4 11 37 15 73 6 61 5 68 -20 97 -20 24 -38 34 -71 39
l-45 6 0 69 c0 66 1 69 29 84 111 57 151 208 85 322 -42 73 -146 115 -231 94z
m96 -146 c50 -25 55 -73 12 -116 -18 -17 -40 -29 -56 -29 -36 0 -75 41 -75 80
0 36 38 80 70 80 12 0 34 -7 49 -15z"/>
<path d="M3402 5427 c-129 -49 -182 -201 -112 -324 16 -28 44 -61 62 -74 51
-34 58 -48 58 -111 l0 -58 -32 0 c-76 0 -116 -59 -103 -150 8 -61 15 -70 61
-80 45 -11 286 -13 333 -4 40 8 61 46 61 112 0 86 -50 122 -167 122 l-53 0 0
64 0 64 50 36 c27 19 57 47 66 61 l17 25 758 -2 c605 -2 761 -6 771 -16 10
-10 14 -123 18 -521 6 -580 0 -547 86 -538 28 3 65 12 81 20 59 31 58 20 58
601 l0 531 -27 47 c-15 25 -45 57 -65 70 l-38 23 -815 3 -815 4 -31 32 c-17
18 -41 40 -55 49 -33 22 -126 30 -167 14z m119 -156 c33 -33 35 -50 14 -90
-24 -46 -74 -55 -119 -20 -37 29 -37 89 0 118 37 29 70 26 105 -8z"/>
<path d="M800 4967 c-23 -11 -26 -21 -33 -97 -4 -47 -7 -420 -5 -830 3 -694 4
-748 21 -773 l17 -27 384 0 384 0 31 35 c37 42 41 92 12 145 -18 35 -19 35
-102 42 -46 3 -177 6 -290 7 -187 1 -208 3 -215 19 -10 20 -18 484 -10 518 l6
24 408 0 407 0 29 26 c26 25 28 31 24 91 -3 49 -9 69 -26 86 -22 22 -25 22
-437 26 l-415 3 0 178 0 178 42 14 c68 23 83 52 83 166 0 122 -13 158 -64 172
-52 14 -221 12 -251 -3z m165 -162 c0 -38 -37 -48 -55 -15 -14 27 4 52 34 48
16 -2 21 -10 21 -33z"/>
<path d="M4695 4950 c-30 -31 -30 -32 -30 -152 0 -114 1 -121 24 -139 13 -11
35 -22 50 -25 14 -3 32 -7 39 -10 10 -3 12 -44 10 -181 l-3 -178 -340 -7
c-187 -4 -378 -9 -424 -10 l-84 -3 -20 -39 c-18 -35 -19 -45 -9 -94 6 -31 16
-60 20 -64 5 -5 200 -12 433 -16 l424 -7 3 -250 c1 -163 -1 -259 -8 -276 l-11
-26 -277 -5 c-182 -3 -285 -9 -299 -16 -48 -26 -55 -142 -11 -189 l23 -24 382
3 c380 3 383 3 405 25 22 22 22 26 25 370 6 536 -9 1309 -25 1325 -9 9 -53 14
-140 16 l-127 4 -30 -32z m163 -112 c19 -19 14 -56 -9 -68 -41 -22 -82 46 -41
69 23 14 36 13 50 -1z"/>
<path d="M1660 4850 c-45 -11 -105 -75 -119 -128 -35 -127 81 -246 207 -213
133 36 175 194 79 299 -17 18 -106 55 -126 51 -3 -1 -22 -5 -41 -9z m75 -134
c16 -12 18 -19 10 -43 -8 -22 -17 -28 -39 -28 -39 0 -54 37 -26 65 24 24 30
24 55 6z"/>
<path d="M4017 4846 c-48 -18 -85 -51 -103 -93 -16 -37 -18 -110 -5 -145 15
-39 70 -85 117 -98 150 -42 270 139 181 272 -42 62 -122 89 -190 64z m91 -164
c4 -36 -13 -48 -53 -38 -48 12 -25 80 25 74 20 -2 26 -9 28 -36z"/>
<path d="M2632 4445 c-260 -79 -462 -253 -567 -491 -14 -32 -84 -241 -155
-464 -123 -388 -212 -673 -515 -1660 -77 -252 -150 -469 -167 -502 -50 -93
-128 -151 -267 -200 -97 -33 -150 -83 -172 -162 -21 -77 42 -185 122 -206 75
-20 251 15 368 75 148 75 283 231 351 405 37 97 172 531 365 1170 205 684 212
703 257 770 86 129 253 250 412 298 106 33 313 37 415 8 150 -41 278 -120 380
-233 83 -92 111 -149 175 -358 541 -1766 531 -1735 635 -1865 103 -130 244
-219 411 -261 142 -36 227 -15 281 69 65 103 14 233 -110 278 -95 34 -190 83
-228 118 -79 70 -82 81 -377 1041 -309 1007 -515 1643 -566 1741 -82 159 -220
292 -385 370 -142 67 -185 76 -395 80 -175 4 -190 3 -268 -21z m436 -414 c110
-34 199 -104 255 -202 29 -51 74 -186 64 -195 -3 -3 -19 3 -36 15 -48 35 -171
89 -241 107 -100 25 -360 23 -462 -4 -78 -21 -153 -55 -220 -100 -21 -14 -41
-23 -43 -20 -8 8 53 177 80 223 51 88 175 170 291 194 71 15 240 5 312 -18z"/>
<path d="M1276 3851 c-59 -7 -86 -37 -93 -103 -5 -40 -2 -49 27 -81 l32 -37
227 0 228 0 24 26 c20 22 24 36 24 89 0 80 -14 96 -92 106 -68 9 -307 8 -377
0z"/>
<path d="M4114 3853 c-59 -6 -86 -37 -86 -101 0 -114 4 -116 277 -120 l220 -3
33 30 c29 27 32 35 32 86 0 50 -3 59 -32 86 l-32 29 -186 -2 c-102 -1 -204 -3
-226 -5z"/>
<path d="M405 3545 c-79 -28 -111 -101 -77 -176 26 -58 52 -80 104 -86 90 -10
158 48 158 135 0 99 -90 161 -185 127z"/>
<path d="M5277 3546 c-53 -19 -75 -42 -88 -90 -15 -55 1 -106 46 -145 90 -79
238 5 220 124 -8 55 -29 83 -78 106 -50 22 -51 22 -100 5z"/>
<path d="M2793 3229 c-160 -27 -315 -139 -383 -276 -30 -62 -150 -404 -150
-429 0 -11 23 -14 100 -14 l99 0 45 70 c94 145 177 211 297 236 185 39 329
-31 454 -220 l50 -75 104 -1 103 0 -6 34 c-10 54 -109 325 -146 400 -48 97
-127 174 -231 225 -115 56 -213 70 -336 50z"/>
<path d="M444 2991 c-58 -14 -101 -49 -128 -103 -74 -148 18 -308 176 -308 53
0 111 26 178 80 23 18 34 20 132 14 96 -6 108 -9 114 -27 3 -11 24 -40 46 -63
l41 -44 178 0 179 0 0 231 0 232 -175 -5 c-198 -5 -210 -9 -253 -86 l-23 -42
-107 0 -107 0 -42 45 c-24 24 -55 51 -70 58 -37 19 -101 27 -139 18z m93 -163
c22 -21 30 -62 15 -84 -10 -16 -48 -34 -71 -34 -22 0 -61 44 -61 70 0 10 9 29
21 44 25 32 64 34 96 4z m608 -3 c50 -49 20 -125 -50 -125 -44 0 -75 29 -75
70 0 38 39 80 75 80 14 0 37 -11 50 -25z"/>
<path d="M4420 2808 c0 -106 3 -211 7 -232 l6 -39 168 6 c188 6 197 9 242 80
28 43 29 44 95 51 137 13 149 10 203 -38 52 -47 119 -71 167 -60 15 4 48 18
74 31 90 44 128 175 80 270 -43 83 -140 133 -225 113 -49 -11 -79 -31 -118
-80 l-32 -40 -108 0 -108 0 -23 42 c-44 78 -56 83 -254 86 l-174 4 0 -194z
m295 36 c23 -9 47 -61 39 -87 -12 -39 -35 -57 -75 -57 -28 0 -42 6 -53 22 -45
64 17 149 89 122z m620 -14 c10 -11 18 -34 18 -52 0 -57 -73 -90 -115 -51 -23
20 -24 85 -2 107 22 23 77 20 99 -4z"/>
<path d="M2737 2320 c-100 -10 -205 -39 -287 -80 -179 -90 -329 -268 -388
-460 -11 -36 -68 -217 -126 -403 -142 -454 -178 -578 -172 -602 9 -33 44 -47
118 -47 38 1 77 4 88 7 22 7 31 34 140 415 107 372 139 472 151 465 5 -4 9
-256 9 -649 l0 -642 30 -31 c17 -18 46 -34 67 -38 30 -5 43 -2 77 22 l41 29 6
719 c3 396 9 731 14 745 11 37 73 98 125 125 64 32 136 45 253 45 160 0 266
-29 330 -89 65 -60 61 -16 68 -796 4 -529 9 -718 18 -742 17 -42 79 -69 126
-53 44 15 61 37 70 90 4 25 11 324 14 665 l6 620 47 -145 c26 -80 76 -248 113
-375 115 -401 100 -362 141 -375 20 -7 67 -10 106 -8 55 3 73 8 85 23 17 24
21 8 -83 345 -245 792 -274 866 -375 975 -109 116 -285 212 -429 234 -99 15
-285 20 -383 11z"/>
<path d="M413 2299 c-43 -13 -91 -63 -99 -103 -7 -43 24 -118 59 -141 67 -44
169 -19 201 50 36 76 5 159 -71 191 -36 16 -45 16 -90 3z"/>
<path d="M855 2300 c-27 -4 -57 -10 -66 -14 -23 -10 -29 -86 -29 -376 l0 -247
-161 -7 c-88 -4 -172 -11 -185 -16 -48 -19 -49 -28 -49 -630 0 -311 3 -581 8
-601 4 -20 23 -54 42 -77 29 -33 45 -43 88 -51 68 -13 1098 -26 1341 -16 188
7 188 7 220 35 27 25 31 35 31 79 0 39 -5 56 -23 73 -22 23 -25 23 -380 29
-196 4 -517 7 -712 8 -204 1 -361 5 -370 11 -12 8 -16 52 -22 247 -8 258 0
643 13 665 6 10 52 14 178 18 146 4 173 8 188 23 16 16 18 47 23 308 4 243 8
291 20 299 8 5 43 10 76 10 81 0 123 9 133 29 5 9 12 46 15 82 7 62 6 68 -19
97 l-27 32 -141 -1 c-78 -1 -164 -5 -192 -9z"/>
<path d="M4604 2303 c-35 -7 -57 -39 -62 -92 -6 -64 13 -120 45 -132 13 -5 57
-9 96 -9 40 0 79 -5 87 -10 13 -8 16 -56 20 -299 4 -261 7 -292 23 -308 15
-15 42 -19 187 -23 92 -3 172 -9 177 -13 11 -11 11 -903 0 -914 -5 -4 -322
-11 -705 -16 -383 -4 -712 -10 -729 -13 -65 -10 -87 -121 -35 -173 27 -27 33
-29 166 -36 75 -4 423 -4 773 0 l635 8 42 31 c22 18 53 54 69 81 l27 50 -2
565 c-3 620 -2 610 -63 640 -21 10 -75 16 -182 18 l-153 4 0 291 0 290 -26 34
-25 33 -172 -1 c-95 -1 -182 -4 -193 -6z"/>
<path d="M5265 2292 c-50 -23 -65 -41 -76 -89 -26 -114 76 -201 186 -159 35
14 48 26 66 62 58 121 -56 242 -176 186z"/>
<path d="M2843 1681 c-142 -35 -169 -217 -42 -282 l39 -19 0 -109 0 -110 -42
-23 c-136 -75 -137 -275 -3 -354 l45 -26 0 -99 0 -98 -45 -27 c-91 -53 -120
-180 -60 -265 38 -53 91 -81 154 -81 185 0 249 241 92 345 l-41 27 0 100 0
100 39 20 c132 67 130 277 -4 360 l-35 22 0 100 0 101 56 51 c52 47 57 55 61
101 9 112 -97 194 -214 166z m79 -688 c22 -20 23 -41 1 -65 -23 -26 -59 -23
-79 7 -15 23 -15 27 0 50 19 29 51 32 78 8z m-4 -614 c4 -31 -20 -53 -47 -44
-47 15 -31 79 18 73 20 -2 27 -9 29 -29z"/>
</g>
</svg>
